#!OML:ASF F:\VICON\USERDATA\INSTALL\rory3\rory3.ASF
:FULLY-SPECIFIED
:DEGREES
450
root 0.0757272 17.9222 -0.848645 0.966448 -9.05584 3.33685
lowerback -1.18821 -2.1785 -3.94611
upperback -0.265165 -2.87735 2.92804
thorax 0.739186 -1.45784 5.17967
lowerneck -21.847 2.4932 -8.72984
upperneck 18.0978 5.35496 3.9333
head 8.91818 2.3445 3.50173
rclavicle -4.57205e-015 2.22639e-014
rhumerus -34.1797 -10.1205 -72.4746
rradius 35.9247
rwrist 17.0384
rhand -25.5748 8.9068
rfingers 7.12502
rthumb 0.956428 -21.0708
lclavicle -4.57205e-015 2.22639e-014
lhumerus 31.3166 -9.39881 63.0979
lradius 105.114
lwrist -4.19197
lhand -28.9133 18.2029
lfingers 7.12502
lthumb -2.26801 48.1706
rfemur -8.0453 7.22435 12.355
rtibia 27.6417
rfoot -17.6451 -2.25393
rtoes 2.96828
lfemur 1.35555 -1.41832 -24.2597
ltibia 12.2468
lfoot -10.5558 4.1326
ltoes -11.6143
451
root 0.0746394 17.9203 -0.845307 0.943126 -9.02785 3.36313
lowerback -1.17832 -2.16458 -3.98632
upperback -0.292659 -2.85854 2.93484
thorax 0.705384 -1.44709 5.21121
lowerneck -21.8341 2.51191 -8.77057
upperneck 17.9387 5.37904 3.98271
head 8.85627 2.36424 3.52254
rclavicle -2.49475e-014 -4.77083e-015
rhumerus -34.2234 -9.91715 -72.5494
rradius 35.9666
rwrist 16.9915
rhand -25.3476 8.81251
rfingers 7.12502
rthumb 1.17588 -21.164
lclavicle -2.49475e-014 -4.77083e-015
lhumerus 31.6172 -9.25952 63.0528
lradius 105.009
lwrist -4.15816
lhand -28.9623 18.3353
lfingers 7.12502
lthumb -2.31534 48.3025
rfemur -7.99713 7.22002 12.3336
rtibia 27.6279
rfoot -17.6504 -2.26922
rtoes 3.08258
lfemur 1.36083 -1.42894 -24.2869
ltibia 12.2669
lfoot -10.558 4.12626
ltoes -11.7723
452
root 0.0725359 17.9185 -0.845112 0.944214 -8.98596 3.30477
lowerback -1.15095 -2.1711 -3.9537
upperback -0.304929 -2.86871 2.96813
thorax 0.678741 -1.45129 5.22857
lowerneck -21.8243 2.51894 -8.69901
upperneck 17.749 5.39532 3.83172
head 8.7955 2.36547 3.45469
rclavicle -3.844e-014 3.02153e-014
rhumerus -34.1966 -9.79282 -72.6057
rradius 35.9402
rwrist 17.1028
rhand -24.9284 8.84539
rfingers 7.12502
rthumb 1.5807 -21.1285
lclavicle -3.844e-014 3.02153e-014
lhumerus 31.9587 -9.03381 62.9964
lradius 104.89
lwrist -4.16187
lhand -28.8181 18.333
lfingers 7.12502
lthumb -2.17602 48.3016
rfemur -7.96658 7.24193 12.4151
rtibia 27.6336
rfoot -17.6905 -2.30669
rtoes 3.13457
lfemur 1.38315 -1.48552 -24.2159
ltibia 12.2271
lfoot -10.5183 4.12307
ltoes -11.7198
453
root 0.0705705 17.9186 -0.843297 0.953984 -8.96967 3.26449
lowerback -1.17584 -2.16483 -3.9147
upperback -0.250922 -2.86032 2.97551
thorax 0.745805 -1.44989 5.21207
lowerneck -21.9786 2.493 -8.6012
upperneck 17.5348 5.36778 3.70351
head 8.75771 2.35125 3.38902
rclavicle -1.16786e-015 -3.33958e-014
rhumerus -34.049 -9.73034 -72.7148
rradius 35.8826
rwrist 17.2533
rhand -24.5 8.928
rfingers 7.12502
rthumb 1.99449 -21.0424
lclavicle -1.16786e-015 -3.33958e-014
lhumerus 32.4224 -8.72393 62.8657
lradius 104.809
lwrist -4.16561
lhand -28.7703 18.2494
lfingers 7.12502
lthumb -2.12985 48.2185
rfemur -7.95731 7.22038 12.4617
rtibia 27.6401
rfoot -17.7112 -2.28894
rtoes 3.38893
lfemur 1.40423 -1.48746 -24.1649
ltibia 12.1913
lfoot -10.4977 4.10606
ltoes -11.4069
454
root 0.0696392 17.9182 -0.840651 0.933658 -8.96016 3.34709
lowerback -1.18529 -2.14322 -3.98053
upperback -0.212251 -2.83005 2.93216
thorax 0.7883 -1.43667 5.20379
lowerneck -22.1597 2.49491 -8.55182
upperneck 17.3781 5.36601 3.71667
head 8.73589 2.36046 3.38536
rclavicle -1.38901e-014 1.59028e-015
rhumerus -33.9515 -9.60359 -72.8798
rradius 35.8263
rwrist 17.3685
rhand -24.3201 9.04044
rfingers 7.12502
rthumb 2.16818 -20.9283
lclavicle -1.38901e-014 1.59028e-015
lhumerus 32.8506 -8.47886 62.7591
lradius 104.715
lwrist -4.14683
lhand -28.6417 18.1421
lfingers 7.12502
lthumb -2.00569 48.1124
rfemur -7.94607 7.13379 12.3688
rtibia 27.6441
rfoot -17.6688 -2.22193
rtoes 3.40308
lfemur 1.44032 -1.50308 -24.2574
ltibia 12.163
lfoot -10.524 4.11366
ltoes -11.406
455
root 0.068899 17.9174 -0.838713 0.933683 -8.93522 3.39943
lowerback -1.1725 -2.13629 -4.0327
upperback -0.236796 -2.82036 2.92152
thorax 0.756653 -1.43058 5.22369
lowerneck -22.176 2.53025 -8.6035
upperneck 17.2334 5.41281 3.79624
head 8.68127 2.39318 3.42239
rclavicle -4.33102e-014 2.8625e-014
rhumerus -33.9273 -9.3746 -73.0161
rradius 35.7733
rwrist 17.4293
rhand -24.2106 9.05519
rfingers 7.12502
rthumb 2.27396 -20.9124
lclavicle -4.33102e-014 2.8625e-014
lhumerus 33.1067 -8.28118 62.7348
lradius 104.659
lwrist -4.09968
lhand -28.4258 18.1931
lfingers 7.12502
lthumb -1.79711 48.1653
rfemur -7.9455 7.07442 12.3104
rtibia 27.6508
rfoot -17.6554 -2.23182
rtoes 3.22851
lfemur 1.46584 -1.48278 -24.3114
ltibia 12.1172
lfoot -10.5112 4.08549
ltoes -11.5898
456
root 0.0672078 17.9178 -0.836132 0.932088 -8.88316 3.4213
lowerback -1.13783 -2.1199 -4.05528
upperback -0.259579 -2.79895 2.89637
thorax 0.710945 -1.41811 5.21277
lowerneck -22.1715 2.54196 -8.54211
upperneck 17.0385 5.40641 3.7922
head 8.61569 2.40025 3.40409
rclavicle -2.75814e-015 9.54166e-015
rhumerus -33.969 -9.29115 -73.1553
rradius 35.7891
rwrist 17.5232
rhand -23.9573 8.87363
rfingers 7.12502
rthumb 2.51856 -21.0912
lclavicle -2.75814e-015 9.54166e-015
lhumerus 33.4297 -8.14364 62.7046
lradius 104.56
lwrist -4.09871
lhand -28.612 18.0374
lfingers 7.12502
lthumb -1.97703 48.008
rfemur -7.93005 6.99498 12.2878
rtibia 27.6658
rfoot -17.6829 -2.23255
rtoes 3.06233
lfemur 1.49239 -1.47103 -24.3247
ltibia 12.0668
lfoot -10.4539 4.00275
ltoes -11.5838
457
root 0.0646081 17.9182 -0.834053 0.928012 -8.80613 3.44713
lowerback -1.12572 -2.10906 -4.08323
upperback -0.267785 -2.78431 2.87614
thorax 0.694234 -1.41014 5.2086
lowerneck -22.1222 2.53083 -8.51109
upperneck 16.7509 5.37675 3.77084
head 8.5123 2.39521 3.37775
rclavicle 2.37299e-014 1.43125e-014
rhumerus -34.07 -9.0934 -73.3093
rradius 35.9677
rwrist 17.467
rhand -23.5141 8.36366
rfingers 7.12502
rthumb 2.94659 -21.5957
lclavicle 2.37299e-014 1.43125e-014
lhumerus 33.8125 -7.99787 62.6651
lradius 104.41
lwrist -4.10652
lhand -29.0465 17.6182
lfingers 7.12502
lthumb -2.39658 47.5845
rfemur -7.90067 6.92131 12.2703
rtibia 27.6791
rfoot -17.7241 -2.23208
rtoes 3.31264
lfemur 1.52416 -1.46874 -24.3407
ltibia 12.0272
lfoot -10.4419 3.93905
ltoes -11.6685
458
root 0.0612117 17.9181 -0.834312 0.947436 -8.77757 3.47203
lowerback -1.13251 -2.11324 -4.14385
upperback -0.282154 -2.78908 2.88765
thorax 0.687291 -1.41226 5.255
lowerneck -22.1164 2.53619 -8.52843
upperneck 16.4675 5.38841 3.75286
head 8.41388 2.40668 3.36668
rclavicle 1.28465e-014 1.59028e-015
rhumerus -34.0562 -8.89343 -73.439
rradius 36.0093
rwrist 17.5511
rhand -23.1797 8.14016
rfingers 7.12502
rthumb 3.26957 -21.8145
lclavicle 1.28465e-014 1.59028e-015
lhumerus 34.1123 -7.73301 62.6861
lradius 104.247
lwrist -4.11791
lhand -28.976 17.3177
lfingers 7.12502
lthumb -2.3285 47.2848
rfemur -7.92102 6.93998 12.2584
rtibia 27.6925
rfoot -17.7326 -2.25566
rtoes 3.39481
lfemur 1.50869 -1.4175 -24.3491
ltibia 12.0126
lfoot -10.4911 3.89245
ltoes -11.6987
459
root 0.0589202 17.9176 -0.834243 0.944493 -8.74993 3.4984
lowerback -1.15098 -2.11066 -4.18252
upperback -0.220143 -2.78457 2.87583
thorax 0.762269 -1.41345 5.26258
lowerneck -22.3492 2.51525 -8.4829
upperneck 16.2785 5.37476 3.70003
head 8.39305 2.4031 3.34019
rclavicle 1.75676e-014 1.43125e-014
rhumerus -33.8489 -8.84359 -73.5668
rradius 35.8818
rwrist 17.7345
rhand -22.9413 8.36041
rfingers 7.12502
rthumb 3.49981 -21.5906
lclavicle 1.75676e-014 1.43125e-014
lhumerus 34.5021 -7.42763 62.6715
lradius 104.085
lwrist -4.14521
lhand -28.752 17.154
lfingers 7.12502
lthumb -2.11223 47.1232
rfemur -7.91267 6.93022 12.2385
rtibia 27.7082
rfoot -17.7477 -2.25456
rtoes 3.21871
lfemur 1.49212 -1.41696 -24.3623
ltibia 12.0334
lfoot -10.5286 3.84105
ltoes -11.5645
460
root 0.0571421 17.916 -0.83385 0.940853 -8.69884 3.47351
lowerback -1.16415 -2.09306 -4.15425
upperback -0.16301 -2.76103 2.87506
thorax 0.824281 -1.40445 5.24458
lowerneck -22.5601 2.46805 -8.50119
upperneck 16.1792 5.33838 3.67923
head 8.3978 2.38545 3.33412
rclavicle -9.21864e-015 -3.18055e-015
rhumerus -33.7148 -8.78386 -73.6827
rradius 35.7918
rwrist 17.8637
rhand -22.9063 8.45647
rfingers 7.12502
rthumb 3.53359 -21.494
lclavicle -9.21864e-015 -3.18055e-015
lhumerus 34.8821 -7.20672 62.6392
lradius 103.998
lwrist -4.20578
lhand -28.7917 17.215
lfingers 7.12502
lthumb -2.15058 47.1839
rfemur -7.88704 6.93484 12.2794
rtibia 27.7151
rfoot -17.8073 -2.27471
rtoes 3.08913
lfemur 1.46819 -1.42554 -24.3228
ltibia 12.0762
lfoot -10.5459 3.78384
ltoes -11.3682
